<svg width="20" height="21" viewBox="0 0 20 21" fill="none" xmlns="http://www.w3.org/2000/svg">
<g id="call 1" clip-path="url(#clip0_131_2667)">
<g id="Group">
<path id="Vector" d="M3.57782 0.16136C3.26142 0.243391 2.9372 0.423079 2.60517 0.708235C2.23798 1.02464 0.921574 2.36448 0.706731 2.64183C-0.164363 3.75511 -0.179988 5.48558 0.663762 7.71995C1.69111 10.4504 3.61689 13.216 6.05439 15.4621C9.41376 18.5598 13.9138 20.5637 16.2302 20.0012C16.5739 19.9192 17.1442 19.6535 17.4059 19.4543C17.6716 19.2551 19.4372 17.4426 19.6013 17.2043C19.9059 16.7629 20.0231 16.1731 19.9059 15.6731C19.7731 15.1145 19.7302 15.0637 18.0309 13.3606C16.3161 11.6457 16.2614 11.6028 15.695 11.4856C15.2458 11.3918 14.7888 11.4739 14.3474 11.7278C14.2458 11.7903 13.7614 12.2317 13.2731 12.716L12.3864 13.591L12.1013 13.4426C11.402 13.0793 10.8864 12.7317 10.1169 12.0989C9.32782 11.4504 8.22626 10.3137 7.61689 9.51683C7.17548 8.9387 6.52704 7.8723 6.52314 7.72777C6.52314 7.70042 6.82782 7.38011 7.19892 7.01683C7.98017 6.25511 8.28876 5.89964 8.46454 5.5637C8.68329 5.13792 8.72626 4.59886 8.57392 4.15355C8.42157 3.70042 8.27314 3.52855 6.78095 2.03245C5.30439 0.555891 5.07782 0.360579 4.65595 0.216047C4.36298 0.110579 3.87861 0.087141 3.57782 0.16136ZM4.48407 1.25902C4.59345 1.32152 5.21845 1.91136 6.05829 2.75511C7.57782 4.27855 7.63642 4.34886 7.63251 4.7512C7.63251 5.10667 7.53876 5.23167 6.51923 6.2512C6.00361 6.76292 5.55439 7.23558 5.52314 7.30198C5.47626 7.38402 5.46454 7.4973 5.47626 7.6887C5.48798 7.92308 5.51923 8.01292 5.75751 8.48558C6.29657 9.55589 7.00751 10.4973 8.18329 11.7004C9.35126 12.8957 10.5153 13.7864 11.7145 14.4035C12.1403 14.6223 12.2224 14.6535 12.4177 14.6496C12.5505 14.6496 12.6911 14.6223 12.7731 14.5793C12.8474 14.5403 13.3317 14.0871 13.8474 13.5754C14.5114 12.9153 14.8356 12.6223 14.9606 12.5676C15.195 12.4621 15.4997 12.4621 15.7145 12.5676C15.9489 12.6848 18.7106 15.4426 18.8317 15.6848C18.8981 15.8137 18.9255 15.9309 18.9255 16.0989C18.9255 16.5012 18.8434 16.6106 17.7341 17.7239C16.6364 18.8254 16.5349 18.8996 15.9489 19.0325C15.3825 19.1575 14.4333 19.0559 13.4724 18.7707C12.0075 18.3371 10.0388 17.2981 8.41767 16.1028C5.29657 13.8059 2.61689 10.2942 1.50361 7.04808C0.972355 5.50511 0.913762 4.39964 1.32001 3.57933C1.44501 3.31761 1.5622 3.1848 2.3747 2.36058C2.8747 1.85277 3.35517 1.39183 3.4372 1.33323C3.78876 1.09105 4.14814 1.0637 4.48407 1.25902Z" fill="#3D3D3D"/>
</g>
</g>
<defs>
<clipPath id="clip0_131_2667">
<rect width="20" height="20" fill="white" transform="translate(0 0.102539)"/>
</clipPath>
</defs>
</svg>
